<svg width="640" height="360" viewBox="0 0 640 360" fill="none" xmlns="http://www.w3.org/2000/svg">
  <rect width="640" height="360" rx="32" fill="url(#paint0_linear)" />
  <g filter="url(#filter0_f)">
    <ellipse cx="128" cy="252" rx="128" ry="120" fill="url(#paint1_radial)" fill-opacity="0.4" />
  </g>
  <g filter="url(#filter1_f)">
    <ellipse cx="520" cy="116" rx="160" ry="140" fill="url(#paint2_radial)" fill-opacity="0.35" />
  </g>
  <g opacity="0.9">
    <rect x="156" y="190" width="328" height="120" rx="28" fill="#021627" fill-opacity="0.6" />
    <rect x="188" y="214" width="120" height="28" rx="12" fill="#0E2F4A" />
    <rect x="188" y="256" width="84" height="20" rx="10" fill="#0E2F4A" />
    <rect x="332" y="214" width="128" height="10" rx="5" fill="#AEE8FF" fill-opacity="0.8" />
    <rect x="332" y="234" width="96" height="10" rx="5" fill="#5ED1F5" fill-opacity="0.7" />
    <rect x="332" y="254" width="144" height="12" rx="6" fill="#8CF7D6" fill-opacity="0.75" />
  </g>
  <rect
    x="210"
    y="80"
    width="220"
    height="72"
    rx="36"
    fill="url(#paint3_linear)"
    fill-opacity="0.75"
    stroke="rgba(255,255,255,0.25)"
  />
  <text
    x="240"
    y="124"
    fill="#ffffff"
    fill-opacity="0.9"
    font-family="Inter, 'Segoe UI', sans-serif"
    font-size="22"
    font-weight="600"
    letter-spacing="0.08em"
  >
    ROI PLAYBOOK
  </text>
  <defs>
    <filter id="filter0_f" x="-120" y="52" width="496" height="400" filterUnits="userSpaceOnUse" color-interpolation-filters="sRGB">
      <feGaussianBlur stdDeviation="80" />
    </filter>
    <filter id="filter1_f" x="240" y="-144" width="560" height="520" filterUnits="userSpaceOnUse" color-interpolation-filters="sRGB">
      <feGaussianBlur stdDeviation="100" />
    </filter>
    <linearGradient id="paint0_linear" x1="0" y1="0" x2="640" y2="360" gradientUnits="userSpaceOnUse">
      <stop stop-color="#021A33" />
      <stop offset="1" stop-color="#08304d" />
    </linearGradient>
    <radialGradient id="paint1_radial" cx="0" cy="0" r="1" gradientUnits="userSpaceOnUse" gradientTransform="translate(128 252) rotate(90) scale(120 128)">
      <stop stop-color="#2EC1FF" />
      <stop offset="1" stop-color="#2EC1FF" stop-opacity="0" />
    </radialGradient>
    <radialGradient id="paint2_radial" cx="0" cy="0" r="1" gradientUnits="userSpaceOnUse" gradientTransform="translate(520 116) rotate(90) scale(140 160)">
      <stop stop-color="#39F2C3" />
      <stop offset="1" stop-color="#39F2C3" stop-opacity="0" />
    </radialGradient>
    <linearGradient id="paint3_linear" x1="210" y1="80" x2="430" y2="152" gradientUnits="userSpaceOnUse">
      <stop stop-color="#0C2846" />
      <stop offset="1" stop-color="#1E4E73" />
    </linearGradient>
  </defs>
</svg>


