<svg xmlns="http://www.w3.org/2000/svg" viewBox="0 0 1500 1000" role="img" aria-label="The Follow-Up Gap visualization">
  <defs>
    <linearGradient id="bg" x1="0" y1="0" x2="1" y2="1">
      <stop offset="0" stop-color="#001a36"/>
      <stop offset="1" stop-color="#002347"/>
    </linearGradient>
    <radialGradient id="glow" cx="0.78" cy="0.28" r="0.55">
      <stop offset="0" stop-color="#00B5E2" stop-opacity="0.22"/>
      <stop offset="1" stop-color="#00B5E2" stop-opacity="0"/>
    </radialGradient>
    <linearGradient id="accentLine" x1="0" y1="0" x2="1" y2="0">
      <stop offset="0" stop-color="#00B5E2" stop-opacity="0.0"/>
      <stop offset="0.5" stop-color="#00B5E2" stop-opacity="0.85"/>
      <stop offset="1" stop-color="#00B5E2" stop-opacity="0.0"/>
    </linearGradient>
  </defs>

  <rect width="1500" height="1000" fill="url(#bg)"/>
  <rect width="1500" height="1000" fill="url(#glow)"/>

  <g stroke="#0a3a66" stroke-width="1" opacity="0.4">
    <path d="M0 200 H1500" /><path d="M0 360 H1500" /><path d="M0 520 H1500" />
    <path d="M0 680 H1500" /><path d="M0 840 H1500" />
  </g>

  <g transform="translate(180,260)" font-family="Georgia, 'Times New Roman', serif">
    <text font-size="22" letter-spacing="6" fill="#00B5E2" opacity="0.85">THE JOURNAL</text>
    <text y="100" font-size="84" font-weight="700" fill="#ffffff">The Follow-Up Gap</text>
    <text y="170" font-size="40" font-weight="400" fill="#cfe5f1" opacity="0.9">where 80% of freight leads quietly die</text>
  </g>

  <g transform="translate(180,560)" font-family="Georgia, serif">
    <text font-size="14" letter-spacing="3" fill="#7fb6d6">TOUCH-BY-TOUCH LEAD SURVIVAL</text>

    <g transform="translate(0,40)">
      <text font-size="14" fill="#9fc4dc">TOUCH 1</text>
      <rect x="160" y="-14" width="900" height="16" fill="#0a3a66"/>
      <rect x="160" y="-14" width="900" height="16" fill="#00B5E2" opacity="0.95"/>
      <text x="1080" y="0" font-size="14" fill="#cfe5f1">100%</text>
    </g>

    <g transform="translate(0,80)">
      <text font-size="14" fill="#9fc4dc">TOUCH 2</text>
      <rect x="160" y="-14" width="900" height="16" fill="#0a3a66"/>
      <rect x="160" y="-14" width="504" height="16" fill="#00B5E2" opacity="0.85"/>
      <text x="1080" y="0" font-size="14" fill="#cfe5f1">56%</text>
    </g>

    <g transform="translate(0,120)">
      <text font-size="14" fill="#9fc4dc">TOUCH 3</text>
      <rect x="160" y="-14" width="900" height="16" fill="#0a3a66"/>
      <rect x="160" y="-14" width="198" height="16" fill="#00B5E2" opacity="0.7"/>
      <text x="1080" y="0" font-size="14" fill="#cfe5f1">22%</text>
    </g>

    <g transform="translate(0,160)">
      <text font-size="14" fill="#9fc4dc">TOUCH 5+</text>
      <rect x="160" y="-14" width="900" height="16" fill="#0a3a66"/>
      <rect x="160" y="-14" width="54" height="16" fill="#00B5E2" opacity="0.55"/>
      <text x="1080" y="0" font-size="14" fill="#cfe5f1">6%</text>
    </g>

    <g transform="translate(0,210)">
      <text font-size="12" letter-spacing="2" fill="#5e8aa6">80% OF SALES REQUIRE 5+ FOLLOW-UPS · MOST DESKS STOP AT 2</text>
    </g>
  </g>

  <rect x="0" y="994" width="1500" height="6" fill="url(#accentLine)"/>
</svg>
