<svg xmlns="http://www.w3.org/2000/svg" viewBox="0 0 1500 1000" role="img" aria-label="Subcontractor bid leveling visualization">
  <defs>
    <linearGradient id="bg" x1="0" y1="0" x2="1" y2="1">
      <stop offset="0" stop-color="#001a36"/>
      <stop offset="1" stop-color="#002347"/>
    </linearGradient>
    <radialGradient id="glow" cx="0.82" cy="0.32" r="0.55">
      <stop offset="0" stop-color="#00B5E2" stop-opacity="0.20"/>
      <stop offset="1" stop-color="#00B5E2" stop-opacity="0"/>
    </radialGradient>
    <linearGradient id="accentLine" x1="0" y1="0" x2="1" y2="0">
      <stop offset="0" stop-color="#00B5E2" stop-opacity="0.0"/>
      <stop offset="0.5" stop-color="#00B5E2" stop-opacity="0.85"/>
      <stop offset="1" stop-color="#00B5E2" stop-opacity="0.0"/>
    </linearGradient>
  </defs>

  <rect width="1500" height="1000" fill="url(#bg)"/>
  <rect width="1500" height="1000" fill="url(#glow)"/>

  <g stroke="#0a3a66" stroke-width="1" opacity="0.35">
    <path d="M0 200 H1500"/><path d="M0 360 H1500"/><path d="M0 520 H1500"/>
    <path d="M0 680 H1500"/><path d="M0 840 H1500"/>
  </g>

  <g transform="translate(180,220)" font-family="Georgia, 'Times New Roman', serif">
    <text font-size="22" letter-spacing="6" fill="#00B5E2" opacity="0.85">THE JOURNAL</text>
    <text y="100" font-size="84" font-weight="700" fill="#ffffff">Subcontractor Bid Leveling</text>
    <text y="170" font-size="38" font-weight="400" fill="#cfe5f1" opacity="0.9">manual review vs an AI-drafted leveling sheet</text>
  </g>

  <g transform="translate(180,560)" font-family="Georgia, 'Times New Roman', serif">

    <g transform="translate(0,0)">
      <text font-size="14" letter-spacing="3" fill="#7fb6d6">RAW BIDS  ·  PDFS, EMAIL, EXCEL</text>
      <g transform="translate(0,30)">
        <rect x="0"   y="0"   width="120" height="34" fill="#0a3a66"/>
        <rect x="0"   y="0"   width="84"  height="34" fill="#5e8aa6" opacity="0.55"/>
        <rect x="0"   y="44"  width="120" height="34" fill="#0a3a66"/>
        <rect x="0"   y="44"  width="46"  height="34" fill="#5e8aa6" opacity="0.55"/>
        <rect x="0"   y="88"  width="120" height="34" fill="#0a3a66"/>
        <rect x="0"   y="88"  width="108" height="34" fill="#5e8aa6" opacity="0.55"/>
        <rect x="0"   y="132" width="120" height="34" fill="#0a3a66"/>
        <rect x="0"   y="132" width="62"  height="34" fill="#5e8aa6" opacity="0.55"/>
        <rect x="0"   y="176" width="120" height="34" fill="#0a3a66"/>
        <rect x="0"   y="176" width="94"  height="34" fill="#5e8aa6" opacity="0.55"/>

        <rect x="140" y="0"   width="120" height="34" fill="#0a3a66"/>
        <rect x="140" y="0"   width="52"  height="34" fill="#5e8aa6" opacity="0.55"/>
        <rect x="140" y="44"  width="120" height="34" fill="#0a3a66"/>
        <rect x="140" y="44"  width="116" height="34" fill="#5e8aa6" opacity="0.55"/>
        <rect x="140" y="88"  width="120" height="34" fill="#0a3a66"/>
        <rect x="140" y="88"  width="38"  height="34" fill="#5e8aa6" opacity="0.55"/>
        <rect x="140" y="132" width="120" height="34" fill="#0a3a66"/>
        <rect x="140" y="132" width="98"  height="34" fill="#5e8aa6" opacity="0.55"/>
        <rect x="140" y="176" width="120" height="34" fill="#0a3a66"/>
        <rect x="140" y="176" width="72"  height="34" fill="#5e8aa6" opacity="0.55"/>

        <rect x="280" y="0"   width="120" height="34" fill="#0a3a66"/>
        <rect x="280" y="0"   width="96"  height="34" fill="#5e8aa6" opacity="0.55"/>
        <rect x="280" y="44"  width="120" height="34" fill="#0a3a66"/>
        <rect x="280" y="44"  width="78"  height="34" fill="#5e8aa6" opacity="0.55"/>
        <rect x="280" y="88"  width="120" height="34" fill="#0a3a66"/>
        <rect x="280" y="88"  width="58"  height="34" fill="#5e8aa6" opacity="0.55"/>
        <rect x="280" y="132" width="120" height="34" fill="#0a3a66"/>
        <rect x="280" y="132" width="104" height="34" fill="#5e8aa6" opacity="0.55"/>
        <rect x="280" y="176" width="120" height="34" fill="#0a3a66"/>
        <rect x="280" y="176" width="42"  height="34" fill="#5e8aa6" opacity="0.55"/>

        <text x="34"  y="232" font-size="12" letter-spacing="2" fill="#5e8aa6">SUB A</text>
        <text x="174" y="232" font-size="12" letter-spacing="2" fill="#5e8aa6">SUB B</text>
        <text x="314" y="232" font-size="12" letter-spacing="2" fill="#5e8aa6">SUB C</text>
      </g>
    </g>

    <g transform="translate(540,118)" stroke="#00B5E2" stroke-width="3" fill="none">
      <line x1="0" y1="0" x2="120" y2="0"/>
      <polyline points="100,-14 120,0 100,14" stroke-linejoin="round"/>
    </g>

    <g transform="translate(720,0)">
      <text font-size="14" letter-spacing="3" fill="#00B5E2">LEVELED  ·  APPLES-TO-APPLES</text>
      <g transform="translate(0,30)">
        <rect x="0"   y="0"   width="120" height="34" fill="#0a3a66"/>
        <rect x="0"   y="0"   width="84"  height="34" fill="#00B5E2" opacity="0.85"/>
        <rect x="0"   y="44"  width="120" height="34" fill="#0a3a66"/>
        <rect x="0"   y="44"  width="84"  height="34" fill="#00B5E2" opacity="0.85"/>
        <rect x="0"   y="88"  width="120" height="34" fill="#0a3a66"/>
        <rect x="0"   y="88"  width="84"  height="34" fill="#00B5E2" opacity="0.85"/>
        <rect x="0"   y="132" width="120" height="34" fill="#0a3a66"/>
        <rect x="0"   y="132" width="84"  height="34" fill="#00B5E2" opacity="0.85"/>
        <rect x="0"   y="176" width="120" height="34" fill="#0a3a66"/>
        <rect x="0"   y="176" width="84"  height="34" fill="#00B5E2" opacity="0.85"/>

        <rect x="140" y="0"   width="120" height="34" fill="#0a3a66"/>
        <rect x="140" y="0"   width="78"  height="34" fill="#00B5E2" opacity="0.85"/>
        <rect x="140" y="44"  width="120" height="34" fill="#0a3a66"/>
        <rect x="140" y="44"  width="78"  height="34" fill="#00B5E2" opacity="0.85"/>
        <rect x="140" y="88"  width="120" height="34" fill="#0a3a66"/>
        <rect x="140" y="88"  width="78"  height="34" fill="#00B5E2" opacity="0.85"/>
        <rect x="140" y="132" width="120" height="34" fill="#0a3a66"/>
        <rect x="140" y="132" width="78"  height="34" fill="#00B5E2" opacity="0.85"/>
        <rect x="140" y="176" width="120" height="34" fill="#0a3a66"/>
        <rect x="140" y="176" width="78"  height="34" fill="#00B5E2" opacity="0.85"/>

        <rect x="280" y="0"   width="120" height="34" fill="#0a3a66"/>
        <rect x="280" y="0"   width="92"  height="34" fill="#00B5E2" opacity="0.85"/>
        <rect x="280" y="44"  width="120" height="34" fill="#0a3a66"/>
        <rect x="280" y="44"  width="92"  height="34" fill="#00B5E2" opacity="0.85"/>
        <rect x="280" y="88"  width="120" height="34" fill="#0a3a66"/>
        <rect x="280" y="88"  width="92"  height="34" fill="#00B5E2" opacity="0.85"/>
        <rect x="280" y="132" width="120" height="34" fill="#0a3a66"/>
        <rect x="280" y="132" width="92"  height="34" fill="#00B5E2" opacity="0.85"/>
        <rect x="280" y="176" width="120" height="34" fill="#0a3a66"/>
        <rect x="280" y="176" width="92"  height="34" fill="#00B5E2" opacity="0.85"/>

        <text x="34"  y="232" font-size="12" letter-spacing="2" fill="#7fb6d6">SUB A</text>
        <text x="174" y="232" font-size="12" letter-spacing="2" fill="#7fb6d6">SUB B</text>
        <text x="314" y="232" font-size="12" letter-spacing="2" fill="#7fb6d6">SUB C</text>
      </g>
    </g>

    <g transform="translate(0,300)">
      <text font-size="12" letter-spacing="2" fill="#5e8aa6">SAME SCOPE  ·  SAME EXCLUSIONS  ·  SAME ASSUMPTIONS  ·  REAL PRICE DIFFERENCE</text>
    </g>
  </g>

  <rect x="0" y="994" width="1500" height="6" fill="url(#accentLine)"/>
</svg>
